# xmcd
#
# Track frame offsets:
#	150
#	13392
#	30181
#	41590
#	67039
#	81200
#	100590
#	118324
#	131922
#	147665
#	169767
#	184776
#	205458
#	219965
#	234802
#	253737
#	286808
#	296529
#
# Disc length: 4164 seconds
#
# Revision: 4
# Processed by: cddbd v1.5.1PL0 Copyright (c) Steve Scherf et al.
# Submitted via: dBpowerAMP V4.0
#
DISCID=0e104212
DTITLE=andré rieu - le monde en fête
DYEAR=2004
DGENRE=Blues
TTITLE0=Entrée des gladiateurs
TTITLE1=Valse Neige
TTITLE2=Blaze Away
TTITLE3=Sur un marché persan
TTITLE4=Marche de Radetzky
TTITLE5=Bummelpetrus
TTITLE6=La dernière rose
TTITLE7=Grande Marche (Aïda)
TTITLE8=Manhã de Carnaval
TTITLE9=Habanera (Carmen)
TTITLE10=Kojo no tsuki
TTITLE11=Fleurs du Printemps "Sakura"
TTITLE12=Monsieur le Marquis (La chauve-souris)
TTITLE13=La marche des aviateurs
TTITLE14=Somewhere over the rainbow
TTITLE15=Les patineurs (Valse)
TTITLE16=Wild Rover
TTITLE17=Wie sjoen os Limburg is
EXTD=
EXTT0=
EXTT1=
EXTT2=
EXTT3=
EXTT4=
EXTT5=
EXTT6=
EXTT7=
EXTT8=
EXTT9=
EXTT10=
EXTT11=
EXTT12=
EXTT13=
EXTT14=
EXTT15=
EXTT16=
EXTT17=
PLAYORDER=
